G04 EAGLE Gerber RS-274X export*
G75*
%MOMM*%
%FSLAX34Y34*%
%LPD*%
%INBottom Copper*%
%IPPOS*%
%AMOC8*
5,1,8,0,0,1.08239X$1,22.5*%
G01*
G04 Define Apertures*
%ADD10C,1.856000*%
%ADD11C,2.766000*%
%ADD12C,2.032000*%
%ADD13C,0.457200*%
D10*
X254000Y25400D03*
X254000Y50400D03*
X254000Y75400D03*
X254000Y100400D03*
D11*
X393700Y36690D03*
X393700Y76290D03*
X311684Y36690D03*
X311684Y76290D03*
D10*
X114900Y119177D03*
X139900Y119177D03*
X164900Y119177D03*
X189900Y119177D03*
D11*
X482600Y38100D03*
X482600Y77700D03*
X177800Y63590D03*
X177800Y23990D03*
X88900Y23990D03*
X88900Y63590D03*
D10*
X571500Y38100D03*
X571500Y63100D03*
X571500Y88100D03*
X571500Y113100D03*
D11*
X344551Y150661D03*
X304951Y150661D03*
D12*
X437388Y166880D03*
X502412Y166880D03*
X437388Y121668D03*
X502412Y121668D03*
D13*
X483616Y40640D02*
X568960Y40640D01*
X571500Y38100D01*
X483616Y40640D02*
X482600Y38100D01*
X292608Y24384D02*
X256032Y24384D01*
X292608Y24384D02*
X300736Y16256D01*
X369824Y16256D01*
X390144Y36576D01*
X256032Y24384D02*
X254000Y25400D01*
X390144Y36576D02*
X393700Y36690D01*
X150368Y85344D02*
X117856Y117856D01*
X114900Y119177D01*
X243810Y25400D02*
X254000Y25400D01*
X243810Y25400D02*
X183866Y85344D01*
X150368Y85344D01*
X499872Y89408D02*
X568960Y89408D01*
X499872Y89408D02*
X491744Y97536D01*
X276352Y97536D01*
X256032Y77216D01*
X568960Y89408D02*
X571500Y88100D01*
X256032Y77216D02*
X254000Y75400D01*
X312928Y77216D02*
X390144Y77216D01*
X312928Y77216D02*
X311684Y76290D01*
X390144Y77216D02*
X393700Y76290D01*
X251968Y52832D02*
X239776Y52832D01*
X191008Y101600D01*
X158496Y101600D01*
X142240Y117856D01*
X251968Y52832D02*
X254000Y50400D01*
X142240Y117856D02*
X139900Y119177D01*
M02*
