M48
;GenerationSoftware,Autodesk,EAGLE,9.7.0*%
;CreationDate,2025-11-05T16:17:24Z*%
FMAT,2
ICI,OFF
METRIC,TZ,000.000
T4C0.840
T3C1.016
T2C1.750
T1C3.302
%
G90
M71
T1
X62230Y8890
X2540Y8890
T2
X48260Y7770
X48260Y3810
X30495Y15066
X34455Y15066
X39370Y3669
X39370Y7629
X31168Y3669
X31168Y7629
X8890Y6359
X8890Y2399
X17780Y2399
X17780Y6359
T3
X50241Y12167
X43739Y16688
X50241Y16688
X43739Y12167
T4
X25400Y2540
X18990Y11918
X16490Y11918
X13990Y11918
X11490Y11918
X57150Y3810
X57150Y6310
X57150Y8810
X57150Y11310
X25400Y10040
X25400Y7540
X25400Y5040
M30