G04 EAGLE Gerber RS-274X export*
G75*
%MOMM*%
%FSLAX34Y34*%
%LPD*%
%INTop Copper*%
%IPPOS*%
%AMOC8*
5,1,8,0,0,1.08239X$1,22.5*%
G01*
G04 Define Apertures*
%ADD10C,2.766000*%
%ADD11C,2.032000*%
%ADD12P,2.19942X8X292.5*%
%ADD13P,1.97947X8X79*%
%ADD14P,1.97947X8X86*%
%ADD15C,1.846000*%
%ADD16C,1.676000*%
%ADD17C,2.036000*%
%ADD18R,1.616000X1.616000*%
%ADD19C,2.032000*%
%ADD20C,1.856000*%
%ADD21C,0.457200*%
%ADD22C,0.914400*%
D10*
X76200Y127000D03*
X76200Y166600D03*
D11*
X447040Y101600D02*
X467360Y101600D01*
X467360Y127000D02*
X447040Y127000D01*
X447040Y152400D02*
X467360Y152400D01*
D12*
X941450Y448820D03*
X966850Y448820D03*
X941450Y423420D03*
X966850Y423420D03*
X941450Y398020D03*
X966850Y398020D03*
X941450Y372620D03*
X966850Y372620D03*
X941450Y347220D03*
X966850Y347220D03*
X941450Y321820D03*
X966850Y321820D03*
X941450Y296420D03*
X966850Y296420D03*
X941450Y271020D03*
X966850Y271020D03*
X941450Y245620D03*
X966850Y245620D03*
D11*
X924560Y647700D02*
X904240Y647700D01*
X904240Y673100D02*
X924560Y673100D01*
X924560Y698500D02*
X904240Y698500D01*
X904240Y723900D02*
X924560Y723900D01*
X469968Y833086D02*
X469826Y853405D01*
X444427Y853228D02*
X444569Y832909D01*
X419169Y832731D02*
X419028Y853051D01*
X393628Y852873D02*
X393770Y832554D01*
X368371Y832377D02*
X368229Y852696D01*
X342829Y852519D02*
X342971Y832199D01*
X317572Y832022D02*
X317430Y852342D01*
X292031Y852164D02*
X292172Y831845D01*
X266773Y831667D02*
X266631Y851987D01*
X241232Y851810D02*
X241374Y831490D01*
X723962Y834859D02*
X723820Y855179D01*
X698421Y855001D02*
X698563Y834682D01*
X673163Y834505D02*
X673021Y854824D01*
X647622Y854647D02*
X647764Y834327D01*
X622364Y834150D02*
X622223Y854469D01*
X596823Y854292D02*
X596965Y833973D01*
X571566Y833795D02*
X571424Y854115D01*
X546024Y853937D02*
X546166Y833618D01*
X520767Y833441D02*
X520625Y853760D01*
X495226Y853583D02*
X495368Y833263D01*
X814620Y947255D02*
X834939Y947397D01*
X835116Y921997D02*
X814797Y921855D01*
X814974Y896456D02*
X835294Y896598D01*
X835471Y871199D02*
X815151Y871057D01*
X815329Y845657D02*
X835648Y845799D01*
D13*
X69190Y484710D03*
X60314Y505814D03*
X83210Y505890D03*
D14*
X70533Y598234D03*
X59152Y618100D03*
X81867Y620966D03*
D15*
X457200Y601600D03*
X457200Y719200D03*
X381000Y601600D03*
X381000Y719200D03*
D16*
X192400Y660400D03*
X264800Y660400D03*
X192400Y584200D03*
X264800Y584200D03*
X192400Y736600D03*
X264800Y736600D03*
D11*
X238760Y279400D02*
X218440Y279400D01*
X218440Y304800D02*
X238760Y304800D01*
X238760Y330200D02*
X218440Y330200D01*
X218440Y355600D02*
X238760Y355600D01*
X238760Y381000D02*
X218440Y381000D01*
X218440Y406400D02*
X238760Y406400D01*
X238760Y431800D02*
X218440Y431800D01*
X218440Y457200D02*
X238760Y457200D01*
X396240Y279400D02*
X416560Y279400D01*
X416560Y304800D02*
X396240Y304800D01*
X396240Y330200D02*
X416560Y330200D01*
X416560Y355600D02*
X396240Y355600D01*
X396240Y381000D02*
X416560Y381000D01*
X416560Y406400D02*
X396240Y406400D01*
X396240Y431800D02*
X416560Y431800D01*
X416560Y457200D02*
X396240Y457200D01*
D17*
X546100Y109200D03*
X546100Y134600D03*
X546100Y160000D03*
X546100Y185400D03*
X546100Y210800D03*
X546100Y236200D03*
X546100Y261600D03*
X546100Y287000D03*
X546100Y312400D03*
X546100Y337800D03*
X546100Y363200D03*
X546100Y388600D03*
X546100Y414000D03*
X546100Y439400D03*
X546100Y464800D03*
X546100Y490200D03*
X546100Y515600D03*
X546100Y541000D03*
X546100Y566400D03*
X546100Y591800D03*
X774700Y109200D03*
X774700Y134600D03*
X774700Y160000D03*
X774700Y185400D03*
X774700Y210800D03*
X774700Y236200D03*
X774700Y261600D03*
X774700Y287000D03*
X774700Y312400D03*
X774700Y337800D03*
X774700Y363200D03*
X774700Y388600D03*
X774700Y414000D03*
X774700Y439400D03*
X774700Y464800D03*
X774700Y490200D03*
X774700Y515600D03*
X774700Y541000D03*
X774700Y566400D03*
X774700Y591800D03*
D18*
X927100Y38100D03*
X927100Y63500D03*
X927100Y88900D03*
X927100Y114300D03*
D10*
X76200Y368300D03*
X76200Y407900D03*
D19*
X177800Y101600D03*
X203200Y101600D03*
X228600Y101600D03*
D10*
X88900Y736600D03*
X88900Y697000D03*
X88990Y266700D03*
X88990Y227100D03*
D20*
X109756Y815204D03*
X109756Y840204D03*
X109756Y865204D03*
X109756Y890204D03*
D21*
X963168Y453136D02*
X963168Y449072D01*
X898144Y258064D02*
X881888Y241808D01*
X963168Y449072D02*
X966850Y448820D01*
D22*
X898144Y428752D03*
X898144Y258064D03*
X881888Y241808D03*
D21*
X963168Y453136D02*
X951482Y464822D01*
X934821Y464822D01*
X898751Y428752D02*
X898144Y428752D01*
X898751Y428752D02*
X934821Y464822D01*
X902208Y461264D02*
X902208Y501904D01*
X804672Y599440D02*
X792480Y599440D01*
X780288Y611632D01*
X735584Y611632D01*
X564896Y440944D01*
X564896Y355600D01*
X548640Y339344D01*
X546100Y337800D01*
D22*
X902208Y461264D03*
X902208Y501904D03*
X804672Y599440D03*
D21*
X967232Y424688D02*
X991616Y449072D01*
X955040Y485648D01*
X950976Y485648D01*
X824992Y144272D02*
X824992Y111252D01*
X784352Y70612D01*
X751332Y70612D01*
X601980Y219964D01*
X601980Y306324D02*
X589280Y319024D01*
X601980Y306324D02*
X601980Y219964D01*
X966850Y423420D02*
X967232Y424688D01*
D22*
X950976Y485648D03*
X824992Y144272D03*
X589280Y319024D03*
D21*
X885444Y400304D02*
X938784Y400304D01*
X885444Y400304D02*
X837184Y448564D01*
X837184Y550672D01*
X938784Y400304D02*
X941450Y398020D01*
D22*
X837184Y550672D03*
D21*
X776224Y562864D02*
X774700Y566400D01*
X776224Y562864D02*
X895204Y562864D01*
X1012444Y445624D01*
X1012444Y443614D01*
X966850Y398020D01*
X938784Y375920D02*
X884936Y375920D01*
X792480Y468376D01*
X792480Y522224D01*
X776224Y538480D01*
X938784Y375920D02*
X941450Y372620D01*
X776224Y538480D02*
X774700Y541000D01*
X938784Y217424D02*
X955548Y200660D01*
X955548Y42126D01*
X577088Y207264D02*
X577088Y436880D01*
D22*
X938784Y217424D03*
X577088Y436880D03*
D21*
X577088Y207264D02*
X760174Y24178D01*
X937600Y24178D01*
X955548Y42126D01*
X1025144Y465328D02*
X858012Y632460D01*
X687324Y632460D01*
X548640Y493776D01*
X546100Y490200D01*
X1025144Y465328D02*
X1025144Y405514D01*
X966850Y347220D01*
X938784Y323088D02*
X886968Y323088D01*
X862584Y347472D01*
X837184Y347472D01*
X792480Y144272D02*
X792480Y103632D01*
X780288Y91440D01*
X768096Y91440D01*
X626872Y232664D01*
X626872Y435864D02*
X601472Y461264D01*
X626872Y435864D02*
X626872Y232664D01*
X938784Y323088D02*
X941450Y321820D01*
D22*
X837184Y347472D03*
X792480Y144272D03*
X601472Y461264D03*
D21*
X967232Y323088D02*
X1045972Y401828D01*
X1045972Y469392D02*
X862076Y653288D01*
X659384Y653288D01*
X548640Y542544D01*
X967232Y323088D02*
X966850Y321820D01*
X548640Y542544D02*
X546100Y541000D01*
X1045972Y469392D02*
X1045972Y401828D01*
X938784Y298704D02*
X869696Y298704D01*
X792480Y375920D01*
X792480Y396240D01*
X776224Y412496D01*
X938784Y298704D02*
X941450Y296420D01*
X776224Y412496D02*
X774700Y414000D01*
X861568Y274320D02*
X938784Y274320D01*
X861568Y274320D02*
X776224Y359664D01*
X938784Y274320D02*
X941450Y271020D01*
X776224Y359664D02*
X774700Y363200D01*
X776224Y286512D02*
X833120Y229616D01*
X776224Y286512D02*
X774700Y287000D01*
X833120Y229616D02*
X998876Y229616D01*
X1040280Y271020D01*
X966850Y271020D01*
X824992Y896112D02*
X816864Y896112D01*
X783844Y863092D01*
X783844Y794512D01*
X824992Y896112D02*
X825134Y896527D01*
X367124Y710532D02*
X247904Y591312D01*
X247904Y579120D01*
X328168Y498856D01*
X487680Y498856D01*
X487680Y473456D02*
X544576Y416560D01*
X367124Y710532D02*
X381000Y719200D01*
X544576Y416560D02*
X546100Y414000D01*
X239776Y599440D02*
X158496Y599440D01*
X239776Y599440D02*
X247904Y591312D01*
X723392Y794512D02*
X783844Y794512D01*
X796544Y794512D01*
X723392Y794512D02*
X487680Y558800D01*
X487680Y498856D02*
X487680Y473456D01*
X487680Y498856D02*
X487680Y558800D01*
X109756Y865204D02*
X81928Y837376D01*
X81928Y757448D01*
X69228Y744748D01*
X69228Y688708D02*
X158496Y599440D01*
X69228Y688708D02*
X69228Y744748D01*
X796544Y794512D02*
X892556Y698500D01*
X914400Y698500D01*
X774700Y210800D02*
X776224Y209296D01*
X887778Y110442D02*
X887778Y91100D01*
X887778Y110442D02*
X788924Y209296D01*
X776224Y209296D01*
X887778Y91100D02*
X901700Y77178D01*
X913422Y77178D02*
X927100Y63500D01*
X913422Y77178D02*
X901700Y77178D01*
X455168Y379984D02*
X406400Y379984D01*
X455168Y379984D02*
X544576Y290576D01*
X406400Y379984D02*
X406400Y381000D01*
X544576Y290576D02*
X546100Y287000D01*
X390144Y843280D02*
X369824Y843280D01*
X368300Y842536D01*
X390144Y843280D02*
X393699Y842714D01*
X394208Y843280D02*
X418592Y843280D01*
X419098Y842891D01*
X394208Y843280D02*
X393699Y842714D01*
X365760Y855472D02*
X345440Y875792D01*
X365760Y855472D02*
X365760Y843280D01*
X368300Y842536D01*
X85344Y619760D02*
X85344Y603504D01*
X85344Y619760D02*
X81867Y620966D01*
X85344Y505968D02*
X83210Y505890D01*
X406400Y302768D02*
X503936Y302768D01*
X544576Y262128D01*
X406400Y302768D02*
X406400Y304800D01*
X544576Y262128D02*
X546100Y261600D01*
X177800Y101600D02*
X152400Y127000D01*
X76200Y127000D01*
X85344Y505968D02*
X85344Y540523D01*
X86715Y541894D01*
X86715Y602133D01*
X85344Y603504D01*
X196144Y875792D02*
X345440Y875792D01*
X196144Y875792D02*
X160556Y840204D01*
X109756Y840204D01*
X224905Y435495D02*
X228600Y431800D01*
X224905Y435495D02*
X88990Y299580D01*
X88990Y266700D01*
X96380Y238880D02*
X96380Y234490D01*
X88990Y227100D01*
X96380Y238880D02*
X141452Y283952D01*
X228600Y406400D02*
X225298Y409702D01*
X224512Y409702D01*
X141452Y326643D01*
X141452Y283952D01*
X829056Y847344D02*
X837184Y847344D01*
X866140Y876300D01*
X866140Y915924D01*
X837184Y944880D01*
X824992Y944880D01*
X829056Y847344D02*
X825489Y845728D01*
X824992Y944880D02*
X824779Y947326D01*
X955040Y689864D02*
X935292Y670116D01*
X955040Y689864D02*
X955040Y729488D01*
X837184Y847344D01*
X914400Y673100D02*
X935292Y670116D01*
X837184Y847344D02*
X825489Y845728D01*
X930656Y445008D02*
X938784Y445008D01*
X930656Y445008D02*
X902208Y416560D01*
X894080Y416560D01*
X885952Y424688D01*
X885952Y550672D01*
X941450Y448820D02*
X938784Y445008D01*
X455168Y603504D02*
X382016Y603504D01*
X381000Y601600D01*
X455168Y603504D02*
X457200Y601600D01*
D22*
X885952Y550672D03*
D21*
X364236Y723900D02*
X328300Y723900D01*
X264800Y660400D01*
X364236Y723900D02*
X417068Y776732D01*
X437388Y776732D01*
X491744Y831088D01*
X491744Y843280D01*
X495297Y843423D01*
X520192Y843280D02*
X520192Y811547D01*
X264800Y584200D01*
X520192Y843280D02*
X520696Y843600D01*
X191008Y587248D02*
X142240Y587248D01*
X89408Y640080D01*
X77216Y640080D01*
X56896Y619760D01*
X191008Y587248D02*
X192400Y584200D01*
X59152Y618100D02*
X56896Y619760D01*
X73152Y481584D02*
X73152Y408432D01*
X73152Y481584D02*
X69190Y484710D01*
X73152Y408432D02*
X76200Y407900D01*
X69088Y538480D02*
X69088Y595376D01*
X69088Y538480D02*
X40640Y510032D01*
X40640Y404368D01*
X73152Y371856D01*
X69088Y595376D02*
X70533Y598234D01*
X73152Y371856D02*
X76200Y368300D01*
X268224Y737616D02*
X349504Y737616D01*
X442976Y831088D01*
X442976Y839216D01*
X268224Y737616D02*
X264800Y736600D01*
X442976Y839216D02*
X444498Y843068D01*
X191008Y733552D02*
X121920Y733552D01*
X89408Y701040D01*
X191008Y733552D02*
X192400Y736600D01*
X89408Y701040D02*
X88900Y697000D01*
X341376Y831088D02*
X341376Y839216D01*
X341376Y831088D02*
X264160Y753872D01*
X211328Y753872D01*
X195072Y737616D01*
X341376Y839216D02*
X342900Y842359D01*
X195072Y737616D02*
X192400Y736600D01*
X406400Y279400D02*
X406400Y215392D01*
X457200Y164592D02*
X457200Y152400D01*
X457200Y164592D02*
X406400Y215392D01*
X457200Y152400D02*
X466598Y143002D01*
X537698Y143002D01*
X546100Y134600D01*
X203200Y101600D02*
X203200Y60198D01*
X415798Y60198D02*
X457200Y101600D01*
X415798Y60198D02*
X203200Y60198D01*
X81603Y161197D02*
X76200Y166600D01*
X81603Y161197D02*
X169003Y161197D01*
X228600Y101600D01*
M02*
