G04 EAGLE Gerber RS-274X export*
G75*
%MOMM*%
%FSLAX34Y34*%
%LPD*%
%INBottom Copper*%
%IPPOS*%
%AMOC8*
5,1,8,0,0,1.08239X$1,22.5*%
G01*
G04 Define Apertures*
%ADD10C,2.766000*%
%ADD11C,2.032000*%
%ADD12P,2.19942X8X292.5*%
%ADD13P,1.97947X8X79*%
%ADD14P,1.97947X8X86*%
%ADD15C,1.846000*%
%ADD16C,1.676000*%
%ADD17C,2.036000*%
%ADD18R,1.616000X1.616000*%
%ADD19C,2.032000*%
%ADD20C,1.856000*%
%ADD21C,0.457200*%
%ADD22C,0.914400*%
D10*
X76200Y127000D03*
X76200Y166600D03*
D11*
X447040Y101600D02*
X467360Y101600D01*
X467360Y127000D02*
X447040Y127000D01*
X447040Y152400D02*
X467360Y152400D01*
D12*
X941450Y448820D03*
X966850Y448820D03*
X941450Y423420D03*
X966850Y423420D03*
X941450Y398020D03*
X966850Y398020D03*
X941450Y372620D03*
X966850Y372620D03*
X941450Y347220D03*
X966850Y347220D03*
X941450Y321820D03*
X966850Y321820D03*
X941450Y296420D03*
X966850Y296420D03*
X941450Y271020D03*
X966850Y271020D03*
X941450Y245620D03*
X966850Y245620D03*
D11*
X924560Y647700D02*
X904240Y647700D01*
X904240Y673100D02*
X924560Y673100D01*
X924560Y698500D02*
X904240Y698500D01*
X904240Y723900D02*
X924560Y723900D01*
X469968Y833086D02*
X469826Y853405D01*
X444427Y853228D02*
X444569Y832909D01*
X419169Y832731D02*
X419028Y853051D01*
X393628Y852873D02*
X393770Y832554D01*
X368371Y832377D02*
X368229Y852696D01*
X342829Y852519D02*
X342971Y832199D01*
X317572Y832022D02*
X317430Y852342D01*
X292031Y852164D02*
X292172Y831845D01*
X266773Y831667D02*
X266631Y851987D01*
X241232Y851810D02*
X241374Y831490D01*
X723962Y834859D02*
X723820Y855179D01*
X698421Y855001D02*
X698563Y834682D01*
X673163Y834505D02*
X673021Y854824D01*
X647622Y854647D02*
X647764Y834327D01*
X622364Y834150D02*
X622223Y854469D01*
X596823Y854292D02*
X596965Y833973D01*
X571566Y833795D02*
X571424Y854115D01*
X546024Y853937D02*
X546166Y833618D01*
X520767Y833441D02*
X520625Y853760D01*
X495226Y853583D02*
X495368Y833263D01*
X814620Y947255D02*
X834939Y947397D01*
X835116Y921997D02*
X814797Y921855D01*
X814974Y896456D02*
X835294Y896598D01*
X835471Y871199D02*
X815151Y871057D01*
X815329Y845657D02*
X835648Y845799D01*
D13*
X69190Y484710D03*
X60314Y505814D03*
X83210Y505890D03*
D14*
X70533Y598234D03*
X59152Y618100D03*
X81867Y620966D03*
D15*
X457200Y601600D03*
X457200Y719200D03*
X381000Y601600D03*
X381000Y719200D03*
D16*
X192400Y660400D03*
X264800Y660400D03*
X192400Y584200D03*
X264800Y584200D03*
X192400Y736600D03*
X264800Y736600D03*
D11*
X238760Y279400D02*
X218440Y279400D01*
X218440Y304800D02*
X238760Y304800D01*
X238760Y330200D02*
X218440Y330200D01*
X218440Y355600D02*
X238760Y355600D01*
X238760Y381000D02*
X218440Y381000D01*
X218440Y406400D02*
X238760Y406400D01*
X238760Y431800D02*
X218440Y431800D01*
X218440Y457200D02*
X238760Y457200D01*
X396240Y279400D02*
X416560Y279400D01*
X416560Y304800D02*
X396240Y304800D01*
X396240Y330200D02*
X416560Y330200D01*
X416560Y355600D02*
X396240Y355600D01*
X396240Y381000D02*
X416560Y381000D01*
X416560Y406400D02*
X396240Y406400D01*
X396240Y431800D02*
X416560Y431800D01*
X416560Y457200D02*
X396240Y457200D01*
D17*
X546100Y109200D03*
X546100Y134600D03*
X546100Y160000D03*
X546100Y185400D03*
X546100Y210800D03*
X546100Y236200D03*
X546100Y261600D03*
X546100Y287000D03*
X546100Y312400D03*
X546100Y337800D03*
X546100Y363200D03*
X546100Y388600D03*
X546100Y414000D03*
X546100Y439400D03*
X546100Y464800D03*
X546100Y490200D03*
X546100Y515600D03*
X546100Y541000D03*
X546100Y566400D03*
X546100Y591800D03*
X774700Y109200D03*
X774700Y134600D03*
X774700Y160000D03*
X774700Y185400D03*
X774700Y210800D03*
X774700Y236200D03*
X774700Y261600D03*
X774700Y287000D03*
X774700Y312400D03*
X774700Y337800D03*
X774700Y363200D03*
X774700Y388600D03*
X774700Y414000D03*
X774700Y439400D03*
X774700Y464800D03*
X774700Y490200D03*
X774700Y515600D03*
X774700Y541000D03*
X774700Y566400D03*
X774700Y591800D03*
D18*
X927100Y38100D03*
X927100Y63500D03*
X927100Y88900D03*
X927100Y114300D03*
D10*
X76200Y368300D03*
X76200Y407900D03*
D19*
X177800Y101600D03*
X203200Y101600D03*
X228600Y101600D03*
D10*
X88900Y736600D03*
X88900Y697000D03*
X88990Y266700D03*
X88990Y227100D03*
D20*
X109756Y815204D03*
X109756Y840204D03*
X109756Y865204D03*
X109756Y890204D03*
D21*
X898144Y428752D02*
X898144Y258064D01*
X881888Y241808D02*
X881888Y217424D01*
X776224Y111760D01*
X774700Y109200D01*
D22*
X898144Y428752D03*
X898144Y258064D03*
X881888Y241808D03*
D21*
X938784Y424688D02*
X902208Y461264D01*
X902208Y501904D02*
X804672Y599440D01*
X938784Y424688D02*
X941450Y423420D01*
D22*
X902208Y461264D03*
X902208Y501904D03*
X804672Y599440D03*
D21*
X950976Y485648D02*
X992632Y485648D01*
X1017016Y195580D02*
X978408Y156972D01*
X837692Y156972D01*
X824992Y144272D01*
X589280Y319024D02*
X548640Y359664D01*
X546100Y363200D01*
D22*
X950976Y485648D03*
X824992Y144272D03*
X589280Y319024D03*
D21*
X1017016Y195580D02*
X1017016Y461264D01*
X992632Y485648D01*
X837184Y550672D02*
X792480Y595376D01*
X792480Y599440D01*
X780288Y611632D01*
X768096Y611632D01*
X548640Y392176D01*
X546100Y388600D01*
D22*
X837184Y550672D03*
D21*
X967232Y375920D02*
X971296Y375920D01*
X996188Y400812D01*
X996188Y444500D01*
X967232Y473456D01*
X784352Y473456D01*
X776224Y465328D01*
X967232Y375920D02*
X966850Y372620D01*
X776224Y465328D02*
X774700Y464800D01*
X922528Y327152D02*
X938784Y343408D01*
X922528Y327152D02*
X922528Y233680D01*
X938784Y217424D01*
X577088Y436880D02*
X548640Y465328D01*
X938784Y343408D02*
X941450Y347220D01*
X548640Y465328D02*
X546100Y464800D01*
D22*
X938784Y217424D03*
X577088Y436880D03*
D21*
X837184Y347472D02*
X837184Y201676D01*
X792480Y156972D01*
X792480Y144272D01*
X601472Y461264D02*
X548640Y514096D01*
X546100Y515600D01*
D22*
X837184Y347472D03*
X792480Y144272D03*
X601472Y461264D03*
D21*
X967232Y294640D02*
X996188Y265684D01*
X996188Y225044D01*
X963676Y192532D01*
X947420Y192532D01*
X849376Y290576D01*
X849376Y351536D01*
X812800Y388112D01*
X776224Y388112D01*
X966850Y296420D02*
X967232Y294640D01*
X776224Y388112D02*
X774700Y388600D01*
X838200Y111760D02*
X926592Y111760D01*
X838200Y111760D02*
X809752Y83312D01*
X674624Y83312D01*
X548640Y209296D01*
X927100Y114300D02*
X926592Y111760D01*
X548640Y209296D02*
X546100Y210800D01*
X812800Y920496D02*
X820928Y920496D01*
X812800Y920496D02*
X783844Y891540D01*
X783844Y831088D01*
X796544Y831088D02*
X901065Y726567D01*
X824957Y921926D02*
X820928Y920496D01*
X901065Y726567D02*
X914400Y723900D01*
X455168Y717296D02*
X455168Y623824D01*
X438912Y607568D01*
X438912Y583184D02*
X438912Y546608D01*
X438912Y583184D02*
X438912Y607568D01*
X438912Y546608D02*
X544576Y440944D01*
X455168Y717296D02*
X457200Y719200D01*
X544576Y440944D02*
X546100Y439400D01*
X284480Y676656D02*
X69088Y676656D01*
X284480Y676656D02*
X377952Y583184D01*
X438912Y583184D01*
X743712Y831088D02*
X783844Y831088D01*
X796544Y831088D01*
X743712Y831088D02*
X633984Y721360D01*
X459232Y721360D01*
X457200Y719200D01*
X109756Y890204D02*
X48400Y828848D01*
X48400Y697344D01*
X69088Y676656D01*
X930656Y91440D02*
X942848Y103632D01*
X942848Y123952D01*
X934720Y132080D01*
X820928Y132080D01*
X780288Y91440D01*
X768096Y91440D01*
X548640Y310896D01*
X927100Y88900D02*
X930656Y91440D01*
X548640Y310896D02*
X546100Y312400D01*
X418592Y404368D02*
X406400Y404368D01*
X418592Y404368D02*
X528320Y294640D01*
X528320Y254000D01*
X544576Y237744D01*
X406400Y404368D02*
X406400Y406400D01*
X544576Y237744D02*
X546100Y236200D01*
X837184Y867664D02*
X887984Y867664D01*
X837184Y867664D02*
X829056Y867664D01*
X887984Y867664D02*
X980440Y775208D01*
X980440Y640080D01*
X829056Y867664D02*
X825311Y871128D01*
X837184Y867664D02*
X837184Y875792D01*
X866140Y904748D01*
X866140Y940308D01*
X828548Y977900D01*
X545084Y977900D01*
X422656Y855472D01*
X422656Y843280D01*
X825311Y871128D02*
X837184Y867664D01*
X422656Y843280D02*
X419098Y842891D01*
X219456Y501904D02*
X85344Y501904D01*
X219456Y501904D02*
X377952Y343408D01*
X377952Y323088D01*
X394208Y306832D01*
X406400Y306832D01*
X85344Y501904D02*
X83210Y505890D01*
X406400Y306832D02*
X406400Y304800D01*
X516128Y38608D02*
X926592Y38608D01*
X927100Y38100D01*
X456692Y123952D02*
X377952Y123952D01*
X456692Y123952D02*
X457200Y127000D01*
X377952Y290576D02*
X394208Y306832D01*
X377952Y290576D02*
X377952Y123952D01*
X406400Y304800D02*
X394208Y306832D01*
X27432Y873760D02*
X60452Y906780D01*
X27432Y873760D02*
X27432Y677672D01*
X81280Y623824D01*
X81867Y620966D01*
X457200Y127000D02*
X466598Y117602D01*
X473988Y117602D01*
X516128Y75462D01*
X516128Y38608D01*
X377952Y123952D02*
X371602Y117602D01*
X180570Y101600D02*
X177800Y101600D01*
X196572Y117602D02*
X371602Y117602D01*
X196572Y117602D02*
X180570Y101600D01*
X124878Y906780D02*
X60452Y906780D01*
X109756Y843818D02*
X109756Y840204D01*
X124878Y858940D02*
X124878Y906780D01*
X124878Y858940D02*
X109756Y843818D01*
X914400Y647700D02*
X922020Y640080D01*
X980440Y640080D01*
X885952Y615696D02*
X885952Y550672D01*
X381000Y601600D02*
X381000Y651256D01*
X334772Y697484D01*
X463296Y595376D02*
X544576Y595376D01*
X463296Y595376D02*
X459232Y599440D01*
X544576Y595376D02*
X546100Y591800D01*
X459232Y599440D02*
X457200Y601600D01*
X788416Y615696D02*
X885952Y615696D01*
X788416Y615696D02*
X784352Y619760D01*
X573024Y619760D01*
X548640Y595376D01*
X546100Y591800D01*
D22*
X885952Y550672D03*
D21*
X885952Y615696D02*
X888238Y617982D01*
X109756Y815204D02*
X98044Y803492D01*
X98044Y773564D02*
X69228Y744748D01*
X98044Y773564D02*
X98044Y803492D01*
X116236Y697484D02*
X334772Y697484D01*
X97048Y716672D02*
X81008Y716672D01*
X69228Y728452D01*
X69228Y744748D01*
X97048Y716672D02*
X116236Y697484D01*
X888238Y654328D02*
X897612Y663702D01*
X888238Y654328D02*
X888238Y617982D01*
X905002Y663702D02*
X914400Y673100D01*
X905002Y663702D02*
X897612Y663702D01*
X60314Y540894D02*
X60314Y505814D01*
X179821Y660400D02*
X192400Y660400D01*
X179821Y660400D02*
X60314Y540894D01*
X467360Y831088D02*
X467360Y839216D01*
X467360Y831088D02*
X390144Y753872D01*
X105664Y753872D01*
X89408Y737616D01*
X467360Y839216D02*
X469897Y843246D01*
X89408Y737616D02*
X88900Y736600D01*
M02*
