M48
;GenerationSoftware,Autodesk,EAGLE,9.7.0*%
;CreationDate,2025-11-05T16:12:16Z*%
FMAT,2
ICI,OFF
METRIC,TZ,000.000
T10C0.508
T9C0.600
T8C0.660
T7C0.813
T6C0.830
T5C0.840
T4C1.016
T3C1.020
T2C1.750
T1C3.302
%
G90
M71
T1
X102870Y5080
X3810Y3810
X102870Y96520
X3810Y95250
T2
X7620Y36830
X7620Y16660
X7620Y12700
X8899Y22710
X8899Y26670
X8890Y69700
X8890Y73660
X7620Y40790
T3
X77470Y10920
X77470Y59180
X77470Y56640
X77470Y54100
X54610Y59180
X54610Y56640
X54610Y54100
X54610Y51560
X54610Y49020
X54610Y46480
X54610Y43940
X54610Y41400
X54610Y38860
X54610Y36320
X54610Y33780
X54610Y31240
X54610Y28700
X54610Y26160
X54610Y23620
X54610Y21080
X54610Y18540
X54610Y16000
X54610Y13460
X54610Y10920
X77470Y16000
X77470Y18540
X77470Y21080
X77470Y23620
X77470Y26160
X77470Y28700
X77470Y31240
X77470Y33780
X77470Y36320
X77470Y38860
X77470Y41400
X77470Y43940
X77470Y46480
X77470Y49020
X77470Y51560
X77470Y13460
T4
X82513Y89653
X22860Y10160
X29210Y84200
X26670Y84183
X24130Y84165
X72389Y84502
X69849Y84484
X67309Y84466
X64769Y84449
X62229Y84431
X34290Y84236
X57149Y84396
X54610Y84378
X52070Y84360
X49530Y84342
X82478Y94733
X82496Y92193
X36830Y84254
X82531Y87113
X82549Y84573
X39370Y84271
X41910Y84289
X44450Y84307
X46990Y84325
X91440Y72390
X91440Y69850
X91440Y67310
X91440Y64770
X59689Y84413
X96685Y24562
X94145Y24562
X96685Y27102
X94145Y27102
X96685Y29642
X94145Y29642
X96685Y32182
X22860Y27940
X22860Y30480
X22860Y33020
X22860Y35560
X22860Y38100
X22860Y40640
X22860Y43180
X22860Y45720
X40640Y27940
X40640Y30480
X40640Y33020
X40640Y35560
X40640Y38100
X40640Y40640
X40640Y43180
X40640Y45720
X94145Y32182
X96685Y34722
X94145Y34722
X96685Y37262
X94145Y37262
X96685Y39802
X94145Y39802
X96685Y42342
X94145Y42342
X96685Y44882
X94145Y44882
X45720Y15240
X45720Y12700
X45720Y10160
X17780Y10160
X20320Y10160
X31750Y84218
T5
X10976Y81520
X10976Y84020
X10976Y86520
X10976Y89020
T6
X38100Y60160
X38100Y71920
X45720Y71920
X45720Y60160
T7
X8187Y62097
X5915Y61810
X7053Y59823
X8321Y50589
X6031Y50581
X6919Y48471
T8
X19240Y73660
X26480Y58420
X19240Y58420
X26480Y66040
X19240Y66040
X26480Y73660
T9
X92710Y6350
X92710Y11430
X92710Y8890
X92710Y3810
T10
X79248Y14427
X60147Y46126
X88595Y55067
X83718Y34747
X57709Y43688
X93878Y21742
X83718Y55067
X58928Y31902
X82499Y14427
X95098Y48565
X80467Y59944
X90221Y50190
X90221Y46126
X88189Y24181
X89814Y25806
X89814Y42875
M30