G04 EAGLE Gerber RS-274X export*
G75*
%MOMM*%
%FSLAX34Y34*%
%LPD*%
%INSoldermask Bottom*%
%IPPOS*%
%AMOC8*
5,1,8,0,0,1.08239X$1,22.5*%
G01*
G04 Define Apertures*
%ADD10C,2.969200*%
%ADD11C,2.235200*%
%ADD12P,2.41936X8X292.5*%
%ADD13P,2.19942X8X79*%
%ADD14P,2.19942X8X86*%
%ADD15C,2.049200*%
%ADD16C,1.879200*%
%ADD17C,2.239200*%
%ADD18R,1.819200X1.819200*%
%ADD19C,2.235200*%
%ADD20C,2.059200*%
%ADD21C,3.505200*%
D10*
X76200Y127000D03*
X76200Y166600D03*
D11*
X447040Y101600D02*
X467360Y101600D01*
X467360Y127000D02*
X447040Y127000D01*
X447040Y152400D02*
X467360Y152400D01*
D12*
X941450Y448820D03*
X966850Y448820D03*
X941450Y423420D03*
X966850Y423420D03*
X941450Y398020D03*
X966850Y398020D03*
X941450Y372620D03*
X966850Y372620D03*
X941450Y347220D03*
X966850Y347220D03*
X941450Y321820D03*
X966850Y321820D03*
X941450Y296420D03*
X966850Y296420D03*
X941450Y271020D03*
X966850Y271020D03*
X941450Y245620D03*
X966850Y245620D03*
D11*
X924560Y647700D02*
X904240Y647700D01*
X904240Y673100D02*
X924560Y673100D01*
X924560Y698500D02*
X904240Y698500D01*
X904240Y723900D02*
X924560Y723900D01*
X469968Y833086D02*
X469826Y853405D01*
X444427Y853228D02*
X444569Y832909D01*
X419169Y832731D02*
X419028Y853051D01*
X393628Y852873D02*
X393770Y832554D01*
X368371Y832377D02*
X368229Y852696D01*
X342829Y852519D02*
X342971Y832199D01*
X317572Y832022D02*
X317430Y852342D01*
X292031Y852164D02*
X292172Y831845D01*
X266773Y831667D02*
X266631Y851987D01*
X241232Y851810D02*
X241374Y831490D01*
X723962Y834859D02*
X723820Y855179D01*
X698421Y855001D02*
X698563Y834682D01*
X673163Y834505D02*
X673021Y854824D01*
X647622Y854647D02*
X647764Y834327D01*
X622364Y834150D02*
X622223Y854469D01*
X596823Y854292D02*
X596965Y833973D01*
X571566Y833795D02*
X571424Y854115D01*
X546024Y853937D02*
X546166Y833618D01*
X520767Y833441D02*
X520625Y853760D01*
X495226Y853583D02*
X495368Y833263D01*
X814620Y947255D02*
X834939Y947397D01*
X835116Y921997D02*
X814797Y921855D01*
X814974Y896456D02*
X835294Y896598D01*
X835471Y871199D02*
X815151Y871057D01*
X815329Y845657D02*
X835648Y845799D01*
D13*
X69190Y484710D03*
X60314Y505814D03*
X83210Y505890D03*
D14*
X70533Y598234D03*
X59152Y618100D03*
X81867Y620966D03*
D15*
X457200Y601600D03*
X457200Y719200D03*
X381000Y601600D03*
X381000Y719200D03*
D16*
X192400Y660400D03*
X264800Y660400D03*
X192400Y584200D03*
X264800Y584200D03*
X192400Y736600D03*
X264800Y736600D03*
D11*
X238760Y279400D02*
X218440Y279400D01*
X218440Y304800D02*
X238760Y304800D01*
X238760Y330200D02*
X218440Y330200D01*
X218440Y355600D02*
X238760Y355600D01*
X238760Y381000D02*
X218440Y381000D01*
X218440Y406400D02*
X238760Y406400D01*
X238760Y431800D02*
X218440Y431800D01*
X218440Y457200D02*
X238760Y457200D01*
X396240Y279400D02*
X416560Y279400D01*
X416560Y304800D02*
X396240Y304800D01*
X396240Y330200D02*
X416560Y330200D01*
X416560Y355600D02*
X396240Y355600D01*
X396240Y381000D02*
X416560Y381000D01*
X416560Y406400D02*
X396240Y406400D01*
X396240Y431800D02*
X416560Y431800D01*
X416560Y457200D02*
X396240Y457200D01*
D17*
X546100Y109200D03*
X546100Y134600D03*
X546100Y160000D03*
X546100Y185400D03*
X546100Y210800D03*
X546100Y236200D03*
X546100Y261600D03*
X546100Y287000D03*
X546100Y312400D03*
X546100Y337800D03*
X546100Y363200D03*
X546100Y388600D03*
X546100Y414000D03*
X546100Y439400D03*
X546100Y464800D03*
X546100Y490200D03*
X546100Y515600D03*
X546100Y541000D03*
X546100Y566400D03*
X546100Y591800D03*
X774700Y109200D03*
X774700Y134600D03*
X774700Y160000D03*
X774700Y185400D03*
X774700Y210800D03*
X774700Y236200D03*
X774700Y261600D03*
X774700Y287000D03*
X774700Y312400D03*
X774700Y337800D03*
X774700Y363200D03*
X774700Y388600D03*
X774700Y414000D03*
X774700Y439400D03*
X774700Y464800D03*
X774700Y490200D03*
X774700Y515600D03*
X774700Y541000D03*
X774700Y566400D03*
X774700Y591800D03*
D18*
X927100Y38100D03*
X927100Y63500D03*
X927100Y88900D03*
X927100Y114300D03*
D10*
X76200Y368300D03*
X76200Y407900D03*
D19*
X177800Y101600D03*
X203200Y101600D03*
X228600Y101600D03*
D10*
X88900Y736600D03*
X88900Y697000D03*
X88990Y266700D03*
X88990Y227100D03*
D20*
X109756Y815204D03*
X109756Y840204D03*
X109756Y865204D03*
X109756Y890204D03*
D21*
X38100Y952500D03*
X1028700Y965200D03*
X38100Y38100D03*
X1028700Y50800D03*
M02*
